<?xml version="1.0" encoding="UTF-8" standalone="no"?>
<!-- Created with Inkscape (http://www.inkscape.org/) -->

<svg
   width="35%"
   viewBox="0 0 50.757706 8.2906704"
   version="1.1"
   id="svg1"
   inkscape:version="1.4.2 (ebf0e940d0, 2025-05-08)"
   sodipodi:docname="grebewatching.svg"
   xmlns:inkscape="http://www.inkscape.org/namespaces/inkscape"
   xmlns:sodipodi="http://sodipodi.sourceforge.net/DTD/sodipodi-0.dtd"
   xmlns="http://www.w3.org/2000/svg"
   xmlns:svg="http://www.w3.org/2000/svg">
  <style
     id="style1">.svgtext {  }
</style>
  <sodipodi:namedview
     id="namedview1"
     pagecolor="#ffffff"
     bordercolor="#000000"
     borderopacity="0.25"
     inkscape:showpageshadow="2"
     inkscape:pageopacity="0.0"
     inkscape:pagecheckerboard="0"
     inkscape:deskcolor="#d1d1d1"
     inkscape:document-units="mm"
     inkscape:zoom="35.114717"
     inkscape:cx="4.214757"
     inkscape:cy="6.4218089"
     inkscape:window-width="2048"
     inkscape:window-height="1080"
     inkscape:window-x="0"
     inkscape:window-y="0"
     inkscape:window-maximized="1"
     inkscape:current-layer="layer1" />
  <defs
     id="defs1" />
  <g
     inkscape:label="Layer 1"
     inkscape:groupmode="layer"
     id="layer1"
     transform="translate(-44.534543,-133.22121)">
    <path
       style="font-size:4.23333px;font-family:Coolvetica;-inkscape-font-specification:Coolvetica;text-align:center;letter-spacing:0px;text-anchor:middle;stroke-width:0.17"
       d="m 56.19746,140.52551 0.596899,-2.0828 h -0.567266 l -0.3175,1.33774 -0.325966,-1.33774 h -0.5588 l -0.287866,1.33774 -0.338667,-1.33774 h -0.579966 l 0.592666,2.0828 h 0.563033 l 0.3302,-1.21073 0.3302,1.21073 z m 1.83303,-0.79163 c -0.0042,0.24553 -0.215899,0.45297 -0.499532,0.45297 -0.173567,0 -0.2667,-0.0762 -0.2667,-0.23284 0,-0.1778 0.1016,-0.2667 0.414866,-0.32596 0.2032,-0.0381 0.300566,-0.0677 0.3556,-0.12277 z m 0.554567,0.79163 v -1.31656 c 0,-0.52494 -0.2286,-0.82127 -0.889,-0.82127 -0.668866,0 -0.905932,0.30057 -0.914399,0.73237 h 0.512233 c 0.0254,-0.18627 0.127,-0.30904 0.376766,-0.30904 0.2159,0 0.351367,0.0804 0.351367,0.2159 0,0.14394 -0.0762,0.19897 -0.351367,0.23707 -0.554566,0.0762 -0.956732,0.14393 -0.956732,0.74507 0,0.33866 0.220133,0.5715 0.694266,0.5715 0.2794,0 0.499533,-0.0974 0.630766,-0.2413 0.0042,0.0635 0.01693,0.13546 0.03387,0.18626 z m 0.791632,0 v -1.08373 c 0,-0.33443 0.1651,-0.50377 0.503767,-0.50377 0.0508,0 0.1016,0.004 0.152399,0.0127 v -0.56303 h -0.07197 c -0.224367,0 -0.436033,0.0254 -0.618066,0.3048 v -0.24977 h -0.516467 v 2.0828 z m 2.531528,0 v -0.44873 h -1.092199 l 1.062566,-1.18957 v -0.4445 h -1.693332 v 0.43604 h 0.990599 l -1.062566,1.22343 v 0.42333 z m 1.100663,-0.4064 c -0.334434,0 -0.503767,-0.21166 -0.503767,-0.635 0,-0.42333 0.169333,-0.63076 0.503767,-0.63076 0.334433,0 0.503766,0.20743 0.503766,0.63076 0,0.42334 -0.169333,0.635 -0.503766,0.635 z m 0,0.46144 c 0.647699,0 1.058332,-0.43604 1.058332,-1.09644 0,-0.66463 -0.4064,-1.09643 -1.058332,-1.09643 -0.6604,0 -1.071033,0.43603 -1.071033,1.09643 0,0.6477 0.397933,1.09644 1.071033,1.09644 z m 3.145362,-0.055 v -1.44356 c 0,-0.45297 -0.2921,-0.69427 -0.690033,-0.69427 -0.334433,0 -0.546099,0.127 -0.673099,0.35983 v -0.3048 h -0.524933 v 2.0828 h 0.550333 v -1.1938 c 0,-0.3175 0.1397,-0.47836 0.427566,-0.47836 0.262466,0 0.3556,0.0889 0.3556,0.41063 v 1.26153 z m 0.762,-1.2446 c 0.02117,-0.28786 0.2032,-0.4572 0.423333,-0.4572 0.2159,0 0.4191,0.14817 0.427567,0.4572 z m 1.418166,0.34714 c 0,-0.8255 -0.338667,-1.24037 -0.977899,-1.24037 -0.639233,0 -1.007533,0.41487 -1.007533,1.05833 0,0.75354 0.347133,1.13454 1.041399,1.13454 0.4445,0 0.7874,-0.2413 0.914399,-0.66887 h -0.567266 c -0.0381,0.14393 -0.194733,0.23283 -0.372533,0.23283 -0.270933,0 -0.448733,-0.2032 -0.465666,-0.51646 z m 2.209796,0.4826 c -0.270933,0 -0.4699,-0.23707 -0.4699,-0.6096 0,-0.42757 0.160867,-0.635 0.4699,-0.635 0.313266,0 0.469899,0.2159 0.469899,0.66886 0,0.35137 -0.203199,0.57574 -0.469899,0.57574 z m 0.452966,0.47836 c 0,0.27517 -0.232833,0.44874 -0.524933,0.44874 -0.275166,0 -0.457199,-0.14817 -0.457199,-0.39794 h -0.512233 c 0,0.53764 0.427566,0.87207 1.007532,0.87207 0.579966,0 1.037166,-0.33867 1.037166,-0.9652 v -2.10397 H 70.99717 v 0.25824 c -0.131233,-0.21167 -0.321733,-0.31327 -0.584199,-0.31327 -0.503767,0 -0.910166,0.43603 -0.910166,1.08373 0,0.5461 0.237066,1.07104 0.922866,1.07104 0.270933,0 0.495299,-0.11007 0.571499,-0.29634 z m 1.341967,-0.0635 v -1.08373 c 0,-0.33443 0.1651,-0.50377 0.503767,-0.50377 0.0508,0 0.1016,0.004 0.1524,0.0127 v -0.56303 h -0.07197 c -0.224366,0 -0.436033,0.0254 -0.618066,0.3048 v -0.24977 h -0.516466 v 2.0828 z m 1.202261,-1.2446 c 0.02117,-0.28786 0.2032,-0.4572 0.423333,-0.4572 0.2159,0 0.419099,0.14817 0.427566,0.4572 z m 1.418165,0.34714 c 0,-0.8255 -0.338666,-1.24037 -0.977899,-1.24037 -0.639233,0 -1.007532,0.41487 -1.007532,1.05833 0,0.75354 0.347133,1.13454 1.041399,1.13454 0.444499,0 0.787399,-0.2413 0.914399,-0.66887 h -0.567266 c -0.0381,0.14393 -0.194733,0.23283 -0.372533,0.23283 -0.270933,0 -0.448733,-0.2032 -0.465667,-0.51646 z m 1.176867,0.50376 c -0.262467,0 -0.465666,-0.24553 -0.465666,-0.5969 0,-0.45296 0.156633,-0.67733 0.461433,-0.67733 0.321733,0 0.474133,0.2159 0.474133,0.64347 0,0.37253 -0.194734,0.63076 -0.4699,0.63076 z m -0.4572,0.3937 0.0042,-0.254 c 0.131233,0.21167 0.325966,0.30904 0.579966,0.30904 0.524933,0 0.901699,-0.41487 0.901699,-1.1176 0,-0.63077 -0.3175,-1.07527 -0.855133,-1.07527 -0.258233,0 -0.461433,0.10583 -0.618066,0.32597 v -1.03293 h -0.541866 v 2.84479 z m 2.209799,-1.2446 c 0.02117,-0.28786 0.2032,-0.4572 0.423333,-0.4572 0.2159,0 0.4191,0.14817 0.427566,0.4572 z m 1.418166,0.34714 c 0,-0.8255 -0.338667,-1.24037 -0.9779,-1.24037 -0.639232,0 -1.007532,0.41487 -1.007532,1.05833 0,0.75354 0.347133,1.13454 1.041399,1.13454 0.4445,0 0.787399,-0.2413 0.914399,-0.66887 h -0.567266 c -0.0381,0.14393 -0.194733,0.23283 -0.372533,0.23283 -0.270933,0 -0.448733,-0.2032 -0.465666,-0.51646 z m 2.328329,0.89746 0.5969,-2.0828 h -0.567267 l -0.317499,1.33774 -0.325967,-1.33774 h -0.558799 l -0.287867,1.33774 -0.338666,-1.33774 h -0.579966 l 0.592666,2.0828 h 0.563033 l 0.3302,-1.21073 0.330199,1.21073 z m 1.833031,-0.79163 c -0.0042,0.24553 -0.215899,0.45297 -0.499532,0.45297 -0.173567,0 -0.2667,-0.0762 -0.2667,-0.23284 0,-0.1778 0.1016,-0.2667 0.414866,-0.32596 0.2032,-0.0381 0.300567,-0.0677 0.3556,-0.12277 z m 0.554567,0.79163 v -1.31656 c 0,-0.52494 -0.2286,-0.82127 -0.889,-0.82127 -0.668866,0 -0.905932,0.30057 -0.914399,0.73237 h 0.512233 c 0.0254,-0.18627 0.127,-0.30904 0.376766,-0.30904 0.2159,0 0.351367,0.0804 0.351367,0.2159 0,0.14394 -0.0762,0.19897 -0.351367,0.23707 -0.554566,0.0762 -0.956732,0.14393 -0.956732,0.74507 0,0.33866 0.220133,0.5715 0.694266,0.5715 0.2794,0 0.499533,-0.0974 0.630766,-0.2413 0.0042,0.0635 0.01693,0.13546 0.03387,0.18626 z m 1.4224,-0.82973 c 0,0.25823 -0.1016,0.4064 -0.321733,0.4064 -0.224367,0 -0.3175,-0.1524 -0.3175,-0.41487 v -0.85513 h 1.151466 v -0.38947 h -1.151466 v -0.56303 h -0.541866 v 1.86267 c 0,0.44873 0.2413,0.8382 0.850899,0.8382 0.588433,0 0.842433,-0.3937 0.842433,-0.83397 v -0.59267 h -0.512233 z m 2.057394,0.0762 c -0.02117,0.22437 -0.1905,0.34713 -0.4064,0.34713 -0.2159,0 -0.406399,-0.22013 -0.406399,-0.6731 0,-0.45296 0.190499,-0.60113 0.423333,-0.60113 0.207433,0 0.364066,0.127 0.393699,0.3429 h 0.554566 c -0.03387,-0.49107 -0.402166,-0.8001 -0.944032,-0.8001 -0.5842,0 -0.973666,0.32597 -0.973666,1.07103 0,0.74507 0.389466,1.12184 0.956733,1.12184 0.503766,0 0.897466,-0.32597 0.956732,-0.80857 z m 2.603502,0.75353 v -1.4732 c 0,-0.41486 -0.296333,-0.66463 -0.723899,-0.66463 -0.2794,0 -0.5334,0.1397 -0.613833,0.32597 v -1.03293 h -0.550333 v 2.84479 h 0.550333 v -1.1938 c 0,-0.2794 0.1524,-0.508 0.427566,-0.508 0.249767,0 0.3556,0.0974 0.3556,0.41064 v 1.29116 z m 0.804332,0 v -2.0828 h -0.550333 v 2.0828 z m 0,-2.33256 v -0.51223 h -0.550333 v 0.51223 z m 2.13783,2.33256 v -1.44356 c 0,-0.45297 -0.2921,-0.69427 -0.690033,-0.69427 -0.334433,0 -0.5461,0.127 -0.6731,0.35983 v -0.3048 h -0.524933 v 2.0828 h 0.550333 v -1.1938 c 0,-0.3175 0.1397,-0.47836 0.427567,-0.47836 0.262466,0 0.355599,0.0889 0.355599,0.41063 v 1.26153 z m 1.240368,-0.41486 c -0.270933,0 -0.4699,-0.23707 -0.4699,-0.6096 0,-0.42757 0.160867,-0.635 0.4699,-0.635 0.313266,0 0.4699,0.2159 0.4699,0.66886 0,0.35137 -0.2032,0.57574 -0.4699,0.57574 z m 0.452966,0.47836 c 0,0.27517 -0.232833,0.44874 -0.524933,0.44874 -0.275166,0 -0.457199,-0.14817 -0.457199,-0.39794 h -0.512233 c 0,0.53764 0.427566,0.87207 1.007532,0.87207 0.579967,0 1.037166,-0.33867 1.037166,-0.9652 v -2.10397 h -0.550333 v 0.25824 c -0.131233,-0.21167 -0.321733,-0.31327 -0.584199,-0.31327 -0.503766,0 -0.910166,0.43603 -0.910166,1.08373 0,0.5461 0.237066,1.07104 0.922866,1.07104 0.270933,0 0.495299,-0.11007 0.571499,-0.29634 z"
       id="text1"
       class="svgtext"
       aria-label="warzone grebewatching" />
    <path
       class="st0"
       d="m 51.96016,141.51188 c -2.193652,0 -4.387304,0 -6.580956,0 -0.01922,-0.01 -0.03973,-0.007 -0.06024,-0.008 -0.09738,-0.008 -0.185899,-0.0447 -0.271184,-0.0892 -0.127387,-0.0663 -0.234047,-0.15783 -0.322139,-0.27075 -0.08485,-0.10882 -0.145307,-0.22995 -0.176398,-0.36489 -0.0084,-0.0362 -0.0067,-0.0736 -0.0089,-0.11055 -4.34e-4,-0.007 0.0019,-0.016 -0.0058,-0.0216 0,-2.18696 0,-4.3737 0,-6.56044 0.0093,-0.0145 0.0054,-0.0311 0.0058,-0.0464 0.0024,-0.10018 0.0339,-0.1926 0.07838,-0.28004 0.114864,-0.22628 0.28824,-0.39037 0.525742,-0.4858 0.07255,-0.0291 0.147035,-0.0451 0.224547,-0.049 0.01036,-7.9e-4 0.02202,0.009 0.03088,-0.004 2.198833,0 4.397667,0 6.596501,0 0.01533,0.0166 0.03627,0.008 0.05376,0.009 0.04145,0.003 0.08075,0.0138 0.119399,0.027 0.157831,0.0531 0.293207,0.14164 0.406344,0.26341 0.116376,0.12523 0.196911,0.26989 0.235343,0.43722 0.0082,0.0358 0.0063,0.0728 0.0084,0.10925 3.95e-4,0.007 -0.0015,0.0145 0.0056,0.0194 0,2.18675 0,4.37349 0,6.56023 -0.01252,0.0173 -0.0076,0.038 -0.0073,0.0559 6.72e-4,0.0583 -0.0136,0.11314 -0.03303,0.16647 -0.09133,0.24938 -0.256502,0.43441 -0.492276,0.55554 -0.06758,0.0348 -0.138615,0.0628 -0.215047,0.074 -0.03282,0.005 -0.06564,0.006 -0.09846,0.007 -0.0069,4e-4 -0.01403,-7.9e-4 -0.019,0.006 z"
       id="path1"
       style="fill:#ff6600;stroke-width:0.021591" />
    <path
       class="st1"
       d="m 49.620768,138.01218 c -0.06132,0.0734 -0.122637,0.16215 -0.199069,0.23491 -0.155456,0.14769 -0.349776,0.22477 -0.556402,0.26967 -0.248945,0.0542 -0.499402,0.0471 -0.750506,0.0132 -0.313502,-0.0421 -0.588788,-0.16906 -0.828664,-0.37179 -0.201877,-0.17079 -0.346753,-0.38433 -0.449958,-0.62701 -0.105364,-0.24743 -0.159774,-0.5076 -0.18741,-0.77318 -0.03994,-0.38388 -0.02137,-0.76475 0.09349,-1.13568 0.09435,-0.30466 0.237718,-0.58296 0.45514,-0.82111 0.251968,-0.27615 0.558129,-0.45579 0.92345,-0.53114 0.204252,-0.0421 0.410446,-0.0421 0.616857,-0.009 0.367048,0.0598 0.650538,0.24808 0.858244,0.55446 0.0054,0.007 0.02569,0.0371 0.02569,0.0371 0,0 0,-0.10321 0,-0.14747 -2.12e-4,-0.1114 0,-0.35646 0,-0.35646 0,0 0.02353,0 0.02915,0 0.329912,-0.001 1.078906,-2.2e-4 1.078906,-2.2e-4 0,0 -2.12e-4,0.0423 -2.12e-4,0.0924 0,1.39046 0.0019,2.78092 -0.0011,4.17117 -8.68e-4,0.4396 -0.125012,0.84205 -0.406775,1.18643 -0.219149,0.26773 -0.501992,0.44413 -0.825858,0.55813 -0.31523,0.11098 -0.641255,0.14919 -0.973326,0.13516 -0.362945,-0.0153 -0.712289,-0.0939 -1.030973,-0.27291 -0.479753,-0.26967 -0.771232,-0.67407 -0.843563,-1.22594 -0.0097,-0.0732 -0.01209,-0.14769 -0.0149,-0.22152 -2.12e-4,-0.005 -0.0015,-0.0283 -0.0015,-0.0283 0,0 0.02246,0 0.0272,0 0.329048,-0.002 0.658096,-0.002 0.987143,-7.9e-4 0.0039,0 0.01943,2.4e-4 0.01943,2.4e-4 0,0 -2.12e-4,0.0207 -2.12e-4,0.0242 0.0034,0.1913 0.05657,0.36403 0.189354,0.5061 0.0991,0.10601 0.221524,0.17618 0.360571,0.21354 0.323002,0.087 0.638879,0.0689 0.938995,-0.0859 0.269888,-0.13926 0.440458,-0.35711 0.45989,-0.66608 0.01447,-0.23297 0.0058,-0.46766 0.0073,-0.70149 -4.35e-4,-0.0117 -4.35e-4,-0.0237 -4.35e-4,-0.0212 z"
       id="path2"
       style="fill:#ffffff;stroke-width:0.021591" />
    <path
       class="st0"
       d="m 47.789846,136.45568 c -0.0065,-0.25456 0.02008,-0.50458 0.11983,-0.74165 0.11724,-0.27831 0.321923,-0.4478 0.623982,-0.494 0.208786,-0.032 0.411958,-0.0184 0.604334,0.0749 0.19216,0.0933 0.310696,0.25261 0.388423,0.44564 0.07622,0.18892 0.115081,0.38734 0.117887,0.58965 0.0026,0.18093 0.0019,0.36467 -0.02591,0.5428 -0.05592,0.35776 -0.304218,0.69264 -0.685084,0.78591 -0.3474,0.0851 -0.705812,-0.0481 -0.91287,-0.34135 -0.145524,-0.20577 -0.212672,-0.43636 -0.230161,-0.68401 -0.0039,-0.0589 -4.34e-4,-0.11853 -4.34e-4,-0.17791 z"
       id="path3"
       style="fill:#ff6600;stroke-width:0.021591" />
  </g>
</svg>
