<?xml version="1.0" encoding="UTF-8" standalone="no"?>
<!-- Created with Inkscape (http://www.inkscape.org/) -->

<svg
width="35%"
   viewBox="0 0 77.858925 3.7478001"
   version="1.1"
   id="svg1"
   inkscape:version="1.4.2 (ebf0e940d0, 2025-05-08)"
   sodipodi:docname="warzone_grebewatching.svg"
   xmlns:inkscape="http://www.inkscape.org/namespaces/inkscape"
   xmlns:sodipodi="http://sodipodi.sourceforge.net/DTD/sodipodi-0.dtd"
   xmlns="http://www.w3.org/2000/svg"
   xmlns:svg="http://www.w3.org/2000/svg">
  <style
     id="style6">.svgtext {  }
</style>
  <sodipodi:namedview
     id="namedview1"
     pagecolor="#ffffff"
     bordercolor="#000000"
     borderopacity="0.25"
     inkscape:showpageshadow="2"
     inkscape:pageopacity="0.0"
     inkscape:pagecheckerboard="0"
     inkscape:deskcolor="#d1d1d1"
     inkscape:document-units="mm"
     inkscape:zoom="4.3893396"
     inkscape:cx="264.50448"
     inkscape:cy="-28.364176"
     inkscape:window-width="2048"
     inkscape:window-height="1080"
     inkscape:window-x="0"
     inkscape:window-y="0"
     inkscape:window-maximized="1"
     inkscape:current-layer="layer1"
     showguides="true">
    <sodipodi:guide
       position="-12.801201,21.503621"
       orientation="1,0"
       id="guide6"
       inkscape:locked="false" />
  </sodipodi:namedview>
  <defs
     id="defs1" />
  <g
     inkscape:label="Layer 1"
     inkscape:groupmode="layer"
     id="layer1"
     transform="translate(-22.552813,-111.40786)">
    <path
       style="font-size:4.9389px;font-family:'Alte DIN 1451 Mittelschrift gepraegt';-inkscape-font-specification:'Alte DIN 1451 Mittelschrift gepraegt';text-align:center;letter-spacing:0.79375px;text-anchor:middle;fill:#000000;fill-opacity:1;stroke-width:0.75;stroke-linecap:round;stroke-linejoin:round"
       d="m 23.449107,114.95046 q -0.02412,0 -0.02894,-0.0217 l -0.865754,-3.45578 q -0.0048,-0.0145 0.0048,-0.0241 0.0096,-0.0121 0.02412,-0.0121 h 0.554662 q 0.02412,0 0.02894,0.0217 l 0.5209,2.36093 q 0.159163,-0.59325 0.320739,-1.17926 0.161575,-0.58602 0.32315,-1.18167 0.0048,-0.0217 0.02894,-0.0217 h 0.378617 q 0.0217,0 0.02653,0.0217 l 0.646302,2.36093 q 0.130225,-0.59325 0.260449,-1.17926 0.130225,-0.58602 0.26045,-1.18167 0.0048,-0.0217 0.02894,-0.0217 h 0.554662 q 0.01447,0 0.02412,0.0121 0.0096,0.01 0.0048,0.0241 l -0.865755,3.45578 q -0.0048,0.0217 -0.02894,0.0217 h -0.436494 q -0.0217,0 -0.02653,-0.0217 l -0.639066,-2.39952 q -0.159164,0.60531 -0.318328,1.20097 -0.159163,0.59566 -0.318327,1.19855 -0.0048,0.0217 -0.02653,0.0217 z m 8.849086,-2.99035 v 0.99116 h 0.764469 q 0.279742,0 0.419613,-0.15434 0.139872,-0.15434 0.139872,-0.36656 0,-0.12058 -0.04341,-0.21463 -0.041,-0.094 -0.120578,-0.15434 -0.06994,-0.0482 -0.163987,-0.0748 -0.09164,-0.0265 -0.200161,-0.0265 z m -0.55225,2.99035 q -0.02894,0 -0.02894,-0.0289 v -3.45578 q 0,-0.0289 0.02894,-0.0289 h 1.352892 q 0.224277,0 0.405145,0.0627 0.180868,0.0603 0.315916,0.17364 0.06994,0.0651 0.132636,0.14951 0.06511,0.082 0.113344,0.17846 0.05064,0.0965 0.07958,0.20498 0.02894,0.10852 0.02894,0.22428 0,0.17122 -0.04823,0.32556 -0.04823,0.15193 -0.135048,0.28457 -0.08923,0.12299 -0.207395,0.21704 -0.118167,0.0916 -0.267685,0.14711 0.195338,0.37379 0.393087,0.75241 0.197749,0.3762 0.393086,0.74999 0.0072,0.0169 0,0.0314 -0.0072,0.0121 -0.02412,0.0121 h -0.622185 q -0.0072,0 -0.01447,-0.005 -0.0072,-0.007 -0.01206,-0.0121 l -0.70659,-1.459 h -0.624598 v 1.44694 q 0,0.0289 -0.02894,0.0289 z m 3.593585,0 q -0.02894,0 -0.02894,-0.0289 v -0.44373 l 1.55064,-2.51768 h -1.456589 q -0.02894,0 -0.02894,-0.0289 v -0.46543 q 0,-0.0289 0.02894,-0.0289 h 2.146299 q 0.02894,0 0.02894,0.0289 v 0.40032 l -1.553053,2.53456 h 1.524114 q 0.02894,0 0.02894,0.0289 v 0.49196 q 0,0.0289 -0.02894,0.0289 z m 3.422364,-1.75562 q 0,-0.31592 0.0072,-0.51608 0.0096,-0.20016 0.02412,-0.2918 0.01688,-0.0916 0.04823,-0.17604 0.03135,-0.0844 0.07717,-0.1664 h -0.0024 q 0.125402,-0.23392 0.405144,-0.43408 0.282154,-0.20258 0.701768,-0.20258 0.41479,0 0.696944,0.20258 0.284566,0.20498 0.409968,0.43408 0.08923,0.16399 0.120578,0.34244 0.01688,0.0916 0.02412,0.2918 0.0096,0.20016 0.0096,0.51608 0,0.61977 -0.03376,0.81029 -0.01688,0.0941 -0.04823,0.17845 -0.02894,0.0844 -0.06994,0.16158 -0.127813,0.23151 -0.412379,0.43408 -0.284565,0.20016 -0.696944,0.20016 -0.417202,0 -0.701768,-0.20016 -0.279742,-0.19775 -0.405144,-0.43408 h 0.0024 q -0.04582,-0.082 -0.07717,-0.16399 -0.03135,-0.0844 -0.04823,-0.17604 -0.01447,-0.0916 -0.02412,-0.2918 -0.0072,-0.20258 -0.0072,-0.51849 z m 0.581189,0 q 0,0.26286 0.0072,0.43408 0.0072,0.16881 0.02653,0.2508 0.01929,0.0748 0.05305,0.14952 0.03617,0.0724 0.07958,0.12782 0.07717,0.10128 0.204984,0.17363 0.127813,0.0699 0.308681,0.0699 0.178456,0 0.30627,-0.0699 0.127813,-0.0724 0.202572,-0.17363 0.101286,-0.12299 0.132636,-0.27734 0.03858,-0.15434 0.03858,-0.68488 0,-0.26286 -0.0096,-0.43167 -0.0096,-0.17122 -0.02894,-0.25081 -0.01688,-0.0772 -0.05064,-0.14951 -0.03376,-0.0748 -0.07958,-0.13264 -0.03617,-0.0458 -0.08923,-0.0892 -0.05064,-0.0434 -0.115755,-0.0748 -0.06511,-0.0338 -0.142283,-0.053 -0.07717,-0.0217 -0.163987,-0.0217 -0.180868,0 -0.308681,0.0724 -0.127814,0.0724 -0.204984,0.1664 -0.04582,0.0579 -0.07958,0.13264 -0.03376,0.0723 -0.05305,0.14951 -0.01929,0.082 -0.02653,0.25322 -0.0072,0.17122 -0.0072,0.42926 z m 3.36931,1.75562 q -0.02894,0 -0.02894,-0.0289 v -3.45578 q 0,-0.0289 0.02894,-0.0289 h 0.496784 q 0.01447,0 0.02412,0.0145 l 1.51929,2.39228 v -2.37781 q 0,-0.0289 0.02894,-0.0289 h 0.525723 q 0.02894,0 0.02894,0.0289 v 3.45578 q 0,0.0289 -0.02894,0.0289 h -0.494372 q -0.01447,0 -0.02412,-0.0145 l -1.524114,-2.39228 v 2.37781 q 0,0.0289 -0.02653,0.0289 z m 4.169951,0 q -0.02894,0 -0.02894,-0.0289 v -3.45578 q 0,-0.0289 0.02894,-0.0289 h 2.209 q 0.02894,0 0.02894,0.0289 v 0.49678 q 0,0.0289 -0.02894,0.0289 h -1.65675 v 0.92605 h 1.408358 q 0.02894,0 0.02894,0.0289 v 0.46784 q 0,0.0265 -0.02894,0.0265 h -1.408358 v 0.9598 h 1.65675 q 0.02894,0 0.02894,0.0289 v 0.49196 q 0,0.0289 -0.02894,0.0289 z m 6.637332,-1.40594 q -0.02894,0 -0.02894,-0.0289 v -0.49679 q 0,-0.0265 0.02894,-0.0265 h 1.22749 q 0.02894,0 0.02894,0.0265 v 0.70418 q 0,0.53296 -0.366559,0.89228 -0.371382,0.36415 -0.894693,0.36415 -0.417202,0 -0.701768,-0.20016 -0.279742,-0.19775 -0.405144,-0.43408 h 0.0024 q -0.04582,-0.082 -0.07717,-0.16399 -0.03135,-0.0844 -0.04823,-0.17604 -0.01447,-0.0916 -0.02412,-0.2918 -0.0072,-0.20258 -0.0072,-0.51849 0,-0.31592 0.0072,-0.51608 0.0096,-0.20016 0.02412,-0.2918 0.01688,-0.0916 0.04823,-0.17604 0.03135,-0.0844 0.07717,-0.1664 h -0.0024 q 0.125402,-0.23392 0.405144,-0.43408 0.282154,-0.20258 0.701768,-0.20258 0.501607,0 0.829581,0.30868 0.332797,0.30869 0.412379,0.73795 0.0048,0.0145 -0.0048,0.0241 -0.0096,0.01 -0.02412,0.01 h -0.55225 q -0.0217,0 -0.02653,-0.0193 -0.03135,-0.0965 -0.08923,-0.17846 -0.05788,-0.0844 -0.142283,-0.15675 -0.159163,-0.14229 -0.402732,-0.14229 -0.180868,0 -0.308681,0.0724 -0.127814,0.0724 -0.204984,0.1664 -0.04582,0.0579 -0.07958,0.13264 -0.03376,0.0723 -0.05305,0.14951 -0.01929,0.082 -0.02653,0.25322 -0.0072,0.17122 -0.0072,0.42926 0,0.26286 0.0072,0.43408 0.0072,0.16881 0.02653,0.2508 0.01929,0.0748 0.05305,0.14952 0.03617,0.0724 0.07958,0.12782 0.07717,0.10128 0.204984,0.17363 0.127813,0.0699 0.308681,0.0699 0.286977,0 0.482314,-0.19533 0.197749,-0.19534 0.197749,-0.51126 v -0.14951 z m 3.236674,-1.58441 v 0.99116 h 0.764469 q 0.279742,0 0.419613,-0.15434 0.139871,-0.15434 0.139871,-0.36656 0,-0.12058 -0.04341,-0.21463 -0.041,-0.094 -0.120579,-0.15434 -0.06994,-0.0482 -0.163986,-0.0748 -0.09164,-0.0265 -0.200161,-0.0265 z m -0.55225,2.99035 q -0.02894,0 -0.02894,-0.0289 v -3.45578 q 0,-0.0289 0.02894,-0.0289 h 1.352892 q 0.224276,0 0.405144,0.0627 0.180868,0.0603 0.315916,0.17364 0.06994,0.0651 0.132637,0.14951 0.06511,0.082 0.113344,0.17846 0.05064,0.0965 0.07958,0.20498 0.02894,0.10852 0.02894,0.22428 0,0.17122 -0.04823,0.32556 -0.04823,0.15193 -0.135048,0.28457 -0.08923,0.12299 -0.207395,0.21704 -0.118167,0.0916 -0.267685,0.14711 0.195338,0.37379 0.393086,0.75241 0.197749,0.3762 0.393087,0.74999 0.0072,0.0169 0,0.0314 -0.0072,0.0121 -0.02412,0.0121 H 58.11406 q -0.0072,0 -0.01447,-0.005 -0.0072,-0.007 -0.01206,-0.0121 l -0.706591,-1.459 h -0.624597 v 1.44694 q 0,0.0289 -0.02894,0.0289 z m 3.805802,0 q -0.02894,0 -0.02894,-0.0289 v -3.45578 q 0,-0.0289 0.02894,-0.0289 h 2.209 q 0.02894,0 0.02894,0.0289 v 0.49678 q 0,0.0289 -0.02894,0.0289 h -1.65675 v 0.92605 h 1.408358 q 0.02894,0 0.02894,0.0289 v 0.46784 q 0,0.0265 -0.02894,0.0265 H 60.56215 v 0.9598 h 1.65675 q 0.02894,0 0.02894,0.0289 v 0.49196 q 0,0.0289 -0.02894,0.0289 z m 3.53812,0 q -0.02894,0 -0.02894,-0.0289 v -3.45578 q 0,-0.0289 0.02894,-0.0289 h 1.340834 q 0.508842,0 0.781349,0.27251 0.270096,0.26768 0.270096,0.68489 0,0.2291 -0.106109,0.42443 -0.09646,0.18328 -0.359324,0.31833 0.243569,0.0772 0.376205,0.29662 0.06994,0.12058 0.106109,0.2484 0.03859,0.1254 0.03859,0.26045 0,0.46061 -0.296624,0.73553 -0.294212,0.2725 -0.692121,0.2725 z m 0.55225,-1.53376 v 0.98392 h 0.778938 q 0.272507,0 0.405144,-0.1471 0.130225,-0.14711 0.130225,-0.34486 0,-0.19292 -0.130225,-0.34244 -0.125402,-0.14952 -0.405144,-0.14952 z m 0,-1.45659 v 0.93328 h 0.730706 q 0.272508,0 0.39791,-0.13505 0.130225,-0.13263 0.130225,-0.33038 0,-0.19534 -0.130225,-0.32798 -0.130225,-0.13987 -0.39791,-0.13987 z m 3.253555,2.99035 q -0.02894,0 -0.02894,-0.0289 v -3.45578 q 0,-0.0289 0.02894,-0.0289 h 2.209 q 0.02894,0 0.02894,0.0289 v 0.49678 q 0,0.0289 -0.02894,0.0289 h -1.65675 v 0.92605 h 1.408358 q 0.02894,0 0.02894,0.0289 v 0.46784 q 0,0.0265 -0.02894,0.0265 h -1.408358 v 0.9598 h 1.65675 q 0.02894,0 0.02894,0.0289 v 0.49196 q 0,0.0289 -0.02894,0.0289 z m 4.097601,0 q -0.02412,0 -0.02894,-0.0217 l -0.865754,-3.45578 q -0.0048,-0.0145 0.0048,-0.0241 0.0096,-0.0121 0.02412,-0.0121 h 0.554661 q 0.02412,0 0.02894,0.0217 l 0.5209,2.36093 q 0.159164,-0.59325 0.320739,-1.17926 0.161575,-0.58602 0.323151,-1.18167 0.0048,-0.0217 0.02894,-0.0217 h 0.378616 q 0.0217,0 0.02653,0.0217 l 0.646301,2.36093 q 0.130225,-0.59325 0.26045,-1.17926 0.130225,-0.58602 0.26045,-1.18167 0.0048,-0.0217 0.02894,-0.0217 h 0.554661 q 0.01447,0 0.02412,0.0121 0.0096,0.01 0.0048,0.0241 l -0.865754,3.45578 q -0.0048,0.0217 -0.02894,0.0217 h -0.436495 q -0.0217,0 -0.02653,-0.0217 l -0.639067,-2.39952 q -0.159164,0.60531 -0.318327,1.20097 -0.159164,0.59566 -0.318328,1.19855 -0.0048,0.0217 -0.02653,0.0217 z m 8.882851,0 q -0.02894,0 -0.02894,-0.0289 v -2.96141 h -0.918809 q -0.02894,0 -0.02894,-0.0289 v -0.46543 q 0,-0.0289 0.02894,-0.0289 h 2.416395 q 0.02894,0 0.02894,0.0289 v 0.46543 q 0,0.0289 -0.02894,0.0289 h -0.916397 v 2.96141 q 0,0.0289 -0.02894,0.0289 z m 5.006765,-1.0225 q 0.01447,0 0.02412,0.0121 0.0096,0.01 0.0048,0.0241 -0.101286,0.49196 -0.448552,0.75723 -0.16881,0.12782 -0.366559,0.19293 -0.197749,0.0651 -0.426849,0.0651 -0.417202,0 -0.701767,-0.20016 -0.279742,-0.19775 -0.405144,-0.43408 -0.04341,-0.082 -0.07476,-0.16399 -0.03135,-0.0844 -0.04823,-0.17604 -0.03135,-0.17846 -0.03135,-0.81029 0,-0.31592 0.0072,-0.51608 0.0072,-0.20016 0.02412,-0.2918 0.01688,-0.0916 0.04823,-0.17604 0.03135,-0.0844 0.07476,-0.1664 0.125402,-0.23392 0.405144,-0.43408 0.282154,-0.20258 0.701767,-0.20258 0.501608,0 0.829581,0.30868 0.332797,0.3111 0.412379,0.73795 0.0048,0.0145 -0.0048,0.0241 -0.0096,0.01 -0.02412,0.01 h -0.55225 q -0.0217,0 -0.02653,-0.0193 -0.03135,-0.0965 -0.08923,-0.17846 -0.05788,-0.0844 -0.142283,-0.15675 -0.159164,-0.14229 -0.402733,-0.14229 -0.180867,0 -0.308681,0.0724 -0.127813,0.0724 -0.204983,0.1664 -0.04582,0.0579 -0.07958,0.13264 -0.03376,0.0723 -0.05306,0.14951 -0.01929,0.082 -0.02653,0.25322 -0.0072,0.17122 -0.0072,0.42926 0,0.26286 0.0072,0.43408 0.0072,0.16881 0.02653,0.2508 0.01929,0.0748 0.05306,0.14952 0.03617,0.0724 0.07958,0.12782 0.07717,0.10128 0.204983,0.17363 0.127814,0.0699 0.308681,0.0699 0.417202,0 0.634244,-0.45578 0.0048,-0.005 0.01206,-0.01 0.0072,-0.007 0.01447,-0.007 z m 3.104038,1.0225 q -0.02894,0 -0.02894,-0.0289 v -1.4807 h -1.314307 v 1.4807 q 0,0.0289 -0.02894,0.0289 h -0.523311 q -0.02894,0 -0.02894,-0.0289 v -3.45578 q 0,-0.0289 0.02894,-0.0289 h 0.523311 q 0.02894,0 0.02894,0.0289 v 1.45177 h 1.314307 v -1.45177 q 0,-0.0289 0.02894,-0.0289 h 0.523311 q 0.02894,0 0.02894,0.0289 v 3.45578 q 0,0.0289 -0.02894,0.0289 z m 2.091177,0 q -0.02894,0 -0.02894,-0.0289 v -3.45578 q 0,-0.0289 0.02894,-0.0289 h 0.523311 q 0.02894,0 0.02894,0.0289 v 3.45578 q 0,0.0289 -0.02894,0.0289 z m 2.074289,0 q -0.02894,0 -0.02894,-0.0289 v -3.45578 q 0,-0.0289 0.02894,-0.0289 h 0.496784 q 0.01447,0 0.02412,0.0145 l 1.519291,2.39228 v -2.37781 q 0,-0.0289 0.02894,-0.0289 h 0.525723 q 0.02894,0 0.02894,0.0289 v 3.45578 q 0,0.0289 -0.02894,0.0289 h -0.494372 q -0.01447,0 -0.02412,-0.0145 l -1.524113,-2.39228 v 2.37781 q 0,0.0289 -0.02653,0.0289 z m 5.291334,-1.40594 q -0.02894,0 -0.02894,-0.0289 v -0.49679 q 0,-0.0265 0.02894,-0.0265 h 1.22749 q 0.02894,0 0.02894,0.0265 v 0.70418 q 0,0.53296 -0.366559,0.89228 -0.371382,0.36415 -0.894693,0.36415 -0.417202,0 -0.701768,-0.20016 -0.279742,-0.19775 -0.405144,-0.43408 h 0.0024 q -0.04582,-0.082 -0.07717,-0.16399 -0.03135,-0.0844 -0.04823,-0.17604 -0.01447,-0.0916 -0.02412,-0.2918 -0.0072,-0.20258 -0.0072,-0.51849 0,-0.31592 0.0072,-0.51608 0.0096,-0.20016 0.02412,-0.2918 0.01688,-0.0916 0.04823,-0.17604 0.03135,-0.0844 0.07717,-0.1664 h -0.0024 q 0.125402,-0.23392 0.405144,-0.43408 0.282154,-0.20258 0.701768,-0.20258 0.501607,0 0.829581,0.30868 0.332797,0.30869 0.412379,0.73795 0.0048,0.0145 -0.0048,0.0241 -0.0096,0.01 -0.02411,0.01 h -0.55225 q -0.0217,0 -0.02653,-0.0193 -0.03135,-0.0965 -0.08923,-0.17846 -0.05788,-0.0844 -0.142283,-0.15675 -0.159163,-0.14229 -0.402732,-0.14229 -0.180868,0 -0.308681,0.0724 -0.127814,0.0724 -0.204984,0.1664 -0.04582,0.0579 -0.07958,0.13264 -0.03376,0.0723 -0.05306,0.14951 -0.01929,0.082 -0.02653,0.25322 -0.0072,0.17122 -0.0072,0.42926 0,0.26286 0.0072,0.43408 0.0072,0.16881 0.02653,0.2508 0.01929,0.0748 0.05306,0.14952 0.03617,0.0724 0.07958,0.12782 0.07717,0.10128 0.204984,0.17363 0.127813,0.0699 0.308681,0.0699 0.286977,0 0.482314,-0.19533 0.197749,-0.19534 0.197749,-0.51126 v -0.14951 z"
       id="text1"
       aria-label="W  RZONE GREBEW  TCHING"
       class="svgtext" />
    <path
       style="font-size:4.90361px;font-family:HalfLife2;-inkscape-font-specification:HalfLife2;text-align:center;letter-spacing:0px;text-anchor:middle;fill:#000000;fill-opacity:1;stroke-width:0.75;stroke-linecap:round;stroke-linejoin:round"
       d="m 30.512253,114.80177 -1.078795,0.31874 -0.725734,-1.88299 -1.064083,1.71626 H 26.97675 l 1.485794,-2.4567 -0.166723,-0.48546 h -0.578626 v -0.57863 h 0.990529 v 0 0 0 l 1.137638,2.96178 0.500168,-0.16672 z"
       id="text3"
       aria-label="A"
       class="svgtext" />
    <path
       style="font-size:4.90361px;font-family:HalfLife2;-inkscape-font-specification:HalfLife2;text-align:center;letter-spacing:0px;text-anchor:middle;fill:#000000;fill-opacity:1;stroke-width:0.75;stroke-linecap:round;stroke-linejoin:round"
       d="m 78.80895,114.83692 -1.078794,0.31874 -0.725734,-1.88299 -1.064084,1.71626 h -0.666891 l 1.485794,-2.45671 -0.166723,-0.48545 h -0.578626 v -0.57863 h 0.99053 v 0 0 0 l 1.137637,2.96178 0.500169,-0.16672 z"
       id="text5"
       aria-label="A"
       class="svgtext" />
    <path
       d="m 100.11044,111.40786 c 0.0263,0 0.051,0.003 0.0741,0.01 0.023,0.007 0.0477,0.0149 0.0741,0.0247 0.056,0.0362 0.0938,0.0741 0.1136,0.1136 0.0263,0.0494 0.0395,0.10043 0.0395,0.1531 0,0.0263 -0.003,0.0527 -0.01,0.079 -0.003,0.0231 -0.0131,0.0478 -0.0296,0.0741 -0.01,0.0263 -0.0247,0.0494 -0.0445,0.0691 -0.0198,0.0197 -0.0428,0.0329 -0.0691,0.0395 -0.0263,0.0165 -0.051,0.028 -0.0741,0.0346 -0.0198,0.007 -0.0444,0.01 -0.0741,0.01 -0.056,0 -0.10372,-0.0148 -0.143232,-0.0444 -0.02634,-0.007 -0.04939,-0.0198 -0.06915,-0.0395 -0.01975,-0.0197 -0.03786,-0.0428 -0.05433,-0.0691 -0.01975,-0.0494 -0.02963,-0.10044 -0.02963,-0.15311 0,-0.0527 0.01317,-0.1037 0.03951,-0.1531 0.01317,-0.0197 0.02799,-0.0395 0.04445,-0.0593 0.01975,-0.0197 0.0428,-0.0378 0.06915,-0.0543 0.04609,-0.0231 0.09384,-0.0346 0.143232,-0.0346 z m 0,0.0494 c -0.0461,0 -0.0873,0.0132 -0.123471,0.0395 -0.04609,0.0197 -0.07573,0.0494 -0.0889,0.0889 -0.01646,0.0197 -0.02798,0.0411 -0.03457,0.0642 -0.0066,0.0197 -0.0099,0.0395 -0.0099,0.0593 0,0.0494 0.01482,0.0938 0.04445,0.13335 0.01317,0.0395 0.04281,0.0692 0.0889,0.0889 0.01975,0.0132 0.03951,0.0214 0.05927,0.0247 0.023,0.003 0.0444,0.005 0.0642,0.005 0.0527,0 0.0955,-0.01 0.12841,-0.0296 0.0428,-0.0197 0.0741,-0.0494 0.0938,-0.0889 0.0197,-0.0428 0.0296,-0.0872 0.0296,-0.13335 0,-0.0428 -0.01,-0.084 -0.0296,-0.12347 -0.0198,-0.0395 -0.051,-0.0692 -0.0938,-0.0889 -0.0198,-0.0165 -0.0428,-0.0263 -0.0691,-0.0296 -0.023,-0.007 -0.0428,-0.01 -0.0593,-0.01 z m -0.133349,0.42474 v -0.32596 h 0.108659 0.0938 c 0.007,0.007 0.0132,0.0133 0.0198,0.0198 0.007,0.007 0.0132,0.0133 0.0198,0.0198 0,0.007 0.002,0.0149 0.005,0.0247 0.003,0.007 0.005,0.0133 0.005,0.0198 0,0.0263 -0.007,0.0461 -0.0198,0.0593 -0.0197,0.0197 -0.0428,0.0296 -0.0691,0.0296 0.003,0.007 0.007,0.0116 0.01,0.0148 0.007,0 0.0132,0.003 0.0197,0.01 0.0132,0.007 0.0263,0.0264 0.0395,0.0593 l 0.0395,0.0691 h -0.0593 l -0.0296,-0.0494 c -0.01,-0.0231 -0.0198,-0.0412 -0.0296,-0.0543 -0.01,-0.0132 -0.0165,-0.0214 -0.0198,-0.0247 -0.007,-0.01 -0.0247,-0.0148 -0.0543,-0.0148 h -0.0296 v 0.14322 z m 0.04939,-0.18274 h 0.0741 c 0.0165,0 0.028,-0.002 0.0346,-0.005 0.01,-0.003 0.0181,-0.008 0.0247,-0.0148 0.0132,-0.0132 0.0198,-0.0247 0.0198,-0.0346 0,-0.003 -0.002,-0.007 -0.005,-0.01 -0.003,-0.007 -0.005,-0.0133 -0.005,-0.0198 -0.003,0 -0.0115,-0.007 -0.0247,-0.0198 h -0.0593 -0.0593 z"
       style="font-size:4.9389px;font-family:HalfLife2;-inkscape-font-specification:HalfLife2;text-align:center;letter-spacing:0.79375px;text-anchor:middle;fill:#000000;fill-opacity:1;stroke-width:0.75;stroke-linecap:round;stroke-linejoin:round"
       id="path1"
       class="svgtext" />
  </g>
</svg>
