<?xml version="1.0" encoding="UTF-8" standalone="no"?>
<svg
   width="140"
   height="72"
   version="1.1"
   viewBox="0 0 140 72"
   id="svg14"
   sodipodi:docname="Germany.svg"
   inkscape:version="1.2.2 (b0a8486541, 2022-12-01)"
   xmlns:inkscape="http://www.inkscape.org/namespaces/inkscape"
   xmlns:sodipodi="http://sodipodi.sourceforge.net/DTD/sodipodi-0.dtd"
   xmlns="http://www.w3.org/2000/svg"
   xmlns:svg="http://www.w3.org/2000/svg">
  <defs
     id="defs18" />
  <sodipodi:namedview
     id="namedview16"
     pagecolor="#ffffff"
     bordercolor="#000000"
     borderopacity="0.25"
     inkscape:showpageshadow="2"
     inkscape:pageopacity="0.0"
     inkscape:pagecheckerboard="0"
     inkscape:deskcolor="#d1d1d1"
     showgrid="false"
     inkscape:zoom="7.1442308"
     inkscape:cx="84.193809"
     inkscape:cy="29.53432"
     inkscape:window-width="1920"
     inkscape:window-height="1001"
     inkscape:window-x="0"
     inkscape:window-y="0"
     inkscape:window-maximized="1"
     inkscape:current-layer="svg14" />
  <g
     id="Adler-und-Saeulenelement"
     transform="translate(-18.336474,-15.257066)">
    <path
       d="m 37.173,29.339 c 0.027,-0.224 0.043,-0.455 0.043,-0.691 0,-0.129 10e-4,-0.279 -0.015,-0.449 1.993,-0.028 3.741,-1.464 3.741,-3.115 0,-0.84 -0.548,-1.474 -0.857,-1.853 0.069,-0.015 0.139,-0.031 0.21,-0.048 0.292,0.254 1.12,1.156 1.12,2.295 0,1.981 -1.98,3.82 -4.242,3.861 M 35.165,22.44 c -0.037,-0.221 -0.121,-0.421 -0.249,-0.593 0.007,-0.202 0.09,-0.395 0.415,-0.236 -0.176,0.18 -0.04,0.499 -0.04,0.499 0,0 0.36,-0.167 0.285,-0.405 0.534,0.128 0.15,0.845 -0.411,0.735 m -0.463,1.017 c -0.071,-0.296 -0.223,-0.6 -0.416,-0.829 -0.176,-0.208 -0.467,-0.455 -0.859,-0.455 -0.179,0 -0.479,0.084 -0.67,0.165 -0.071,-0.13 -0.21,-0.443 -0.21,-0.584 0,-0.145 0.245,-0.292 0.714,-0.292 1.032,0 1.648,0.466 1.648,1.248 0,0.275 -0.109,0.525 -0.207,0.747 m 2.65,13.3 c 0.12,0 0.178,0.019 0.248,0.045 0.297,0.808 1.442,2.333 1.49,2.398 l 0.01,0.014 0.017,-0.004 c 0.281,-0.045 0.998,-0.153 1.598,-0.153 h 0.014 c 0.065,0 0.139,0 0.186,0.046 0.039,0.039 0.058,0.107 0.058,0.204 0,0.149 -0.063,0.404 -0.139,0.513 -0.21,-0.229 -0.551,-0.332 -1.097,-0.332 -0.164,0 -0.358,0.049 -0.463,0.077 l -0.043,0.009 -0.049,0.013 0.315,0.315 c 0.486,0.486 0.906,0.905 0.906,1.184 0,0.168 -0.164,0.387 -0.314,0.484 -0.033,-0.511 -0.549,-1.195 -1.052,-1.578 l -0.043,-0.032 -0.008,0.18 c -0.007,0.122 -0.018,0.305 -0.018,0.501 0,0.973 -0.099,1.121 -0.436,1.121 -0.052,0 -0.131,-0.015 -0.18,-0.033 0.19,-0.235 0.265,-0.545 0.265,-1.089 l -0.003,-0.251 -0.003,-0.202 c 0,-0.223 0.023,-0.388 0.041,-0.521 l 0.01,-0.075 -0.053,-0.007 c -0.158,-0.022 -0.451,-0.062 -0.675,-0.062 -0.481,0 -0.807,0.044 -1.043,0.266 -0.156,-0.126 -0.316,-0.343 -0.316,-0.48 0,-0.203 0.126,-0.219 0.292,-0.219 0.084,0 0.162,0.012 0.27,0.025 0.207,0.031 0.518,0.077 1.159,0.077 h 0.04 L 38.323,39.152 C 38.161,38.687 37.715,38.011 37,37.142 c 0.064,-0.233 0.127,-0.385 0.352,-0.385 m -6.174,2.395 -0.013,0.039 h 0.04 c 0.64,0 0.952,-0.046 1.159,-0.077 0.108,-0.013 0.186,-0.025 0.27,-0.025 0.165,0 0.292,0.016 0.292,0.219 0,0.137 -0.16,0.354 -0.315,0.48 -0.237,-0.222 -0.563,-0.266 -1.043,-0.266 -0.225,0 -0.519,0.04 -0.676,0.062 l -0.025,0.003 -0.028,0.004 0.009,0.075 c 0.019,0.133 0.042,0.298 0.042,0.521 l -0.003,0.202 -0.003,0.251 c 0,0.544 0.075,0.854 0.266,1.089 -0.05,0.018 -0.129,0.033 -0.181,0.033 -0.338,0 -0.436,-0.148 -0.436,-1.121 0,-0.196 -0.01,-0.379 -0.017,-0.501 l -0.01,-0.181 -0.042,0.033 c -0.502,0.383 -1.02,1.067 -1.051,1.578 -0.151,-0.097 -0.315,-0.316 -0.315,-0.484 0,-0.279 0.42,-0.698 0.906,-1.184 l 0.315,-0.315 -0.092,-0.022 c -0.105,-0.028 -0.299,-0.077 -0.464,-0.077 -0.545,0 -0.885,0.103 -1.096,0.332 -0.076,-0.109 -0.139,-0.364 -0.139,-0.513 0,-0.097 0.019,-0.165 0.058,-0.204 0.047,-0.046 0.121,-0.046 0.186,-0.046 h 0.014 c 0.6,0 1.318,0.108 1.598,0.153 l 0.017,0.004 0.01,-0.014 c 0.049,-0.065 1.193,-1.59 1.491,-2.398 0.068,-0.026 0.127,-0.045 0.247,-0.045 0.225,0 0.288,0.152 0.353,0.385 -0.716,0.869 -1.162,1.545 -1.324,2.01 M 28.086,25.478 c 0,-1.139 0.829,-2.041 1.121,-2.295 0.07,0.017 0.14,0.033 0.21,0.048 -0.31,0.379 -0.858,1.013 -0.858,1.853 0,1.668 1.782,3.116 3.8,3.116 -0.013,0.143 -0.02,0.293 -0.02,0.448 0,0.246 0.014,0.475 0.038,0.691 -2.282,-0.014 -4.291,-1.866 -4.291,-3.861 m 15.306,3.513 c 1.024,1.619 1.825,1.592 3.035,1.592 -1.001,-0.767 -1.663,-1.75 -1.979,-2.252 l -1.87,-2.992 c -0.182,-0.924 -0.66,-1.788 -1.376,-2.431 0.241,-0.091 0.441,-0.187 0.561,-0.278 -1.221,0 -2.431,-0.62 -3.097,-0.62 -0.428,0 -0.703,0.256 -0.703,0.594 0.027,0.377 0.415,0.76 1.132,0.76 0.162,0 0.37,-0.021 0.598,-0.059 0.388,0.541 0.701,1.03 0.701,1.728 0,1.31 -1.566,2.331 -3.147,2.331 -0.09,0 -0.175,-0.004 -0.264,-0.01 -0.143,-0.325 -0.62,-0.87 -0.62,-1.49 0,-1.041 0.679,-1.891 0.679,-2.922 0,-0.641 -0.312,-1.038 -0.432,-1.203 0.194,-0.18 0.406,-0.401 0.456,-0.553 -0.113,0.049 -0.247,0.055 -0.442,0.055 -0.758,0 -1.376,-0.197 -1.978,-0.197 -0.344,0 -0.436,0.106 -0.436,0.207 0,0.037 0.005,0.075 0.015,0.093 -0.128,-0.05 -0.248,-0.083 -0.391,-0.109 -0.178,-0.034 -0.369,-0.051 -0.573,-0.051 -0.732,0 -0.992,0.307 -0.992,0.57 0,0.222 0.175,0.628 0.374,0.938 0.285,-0.144 0.628,-0.241 0.784,-0.241 0.389,0 0.734,0.37 0.917,0.808 -0.261,0.032 -0.311,0.043 -0.575,0.043 -0.713,0 -1.198,-0.255 -1.298,-0.255 -0.009,0 -0.028,0.005 -0.028,0.021 0,0.1 0.202,0.364 0.6,0.509 0.525,0.192 1.311,0.272 1.442,0.294 0,0.023 -0.133,0.271 -0.282,0.319 -0.031,0.01 -0.056,0.011 -0.093,0.003 -0.548,-0.108 -0.701,-0.154 -1.396,-0.418 -0.021,-0.008 -0.034,0.005 -0.034,0.027 0,0.275 0.712,0.882 1.35,1.115 -0.533,0.68 -1.198,1.376 -1.512,2.437 -0.089,0.006 -0.175,0.01 -0.264,0.01 -1.581,0 -3.147,-1.021 -3.147,-2.331 0,-0.698 0.313,-1.187 0.701,-1.728 0.228,0.038 0.435,0.059 0.598,0.059 0.717,0 1.105,-0.383 1.133,-0.76 0,-0.338 -0.275,-0.594 -0.704,-0.594 -0.666,0 -1.875,0.62 -3.098,0.62 0.121,0.091 0.321,0.187 0.561,0.278 -0.715,0.643 -1.193,1.507 -1.375,2.431 l -1.87,2.992 c -0.315,0.502 -0.979,1.485 -1.98,2.252 1.21,0 2.012,0.027 3.036,-1.592 l 0.959,-1.534 c 0.071,0.199 0.158,0.393 0.261,0.583 l -1.907,3.051 c -0.317,0.506 -0.975,1.48 -1.98,2.252 1.21,0 2.012,0.028 3.036,-1.59 l 1.641,-2.628 c 0.123,0.131 0.252,0.259 0.388,0.381 l -2.316,3.708 c -0.318,0.507 -0.972,1.479 -1.979,2.25 1.21,0 2.012,0.029 3.035,-1.59 l 2.258,-3.615 c 0.149,0.094 0.301,0.185 0.459,0.271 l -2.757,4.411 c -0.318,0.507 -0.972,1.476 -1.979,2.25 1.21,0 2.012,0.028 3.036,-1.59 l 2.838,-4.543 c 0.168,0.064 0.338,0.126 0.511,0.181 l -3.207,5.133 c -0.313,0.5 -0.982,1.487 -1.978,2.25 1.209,0 2.012,0.028 3.035,-1.59 l 3.418,-5.47 c 0.035,0.006 0.069,0.011 0.103,0.018 0.093,0.296 0.158,0.572 0.158,0.847 0,1.719 -1.128,3.237 -2.482,4.409 0.087,0.038 0.238,0.051 0.377,0.051 0.28,0 0.46,-0.015 0.587,-0.037 -0.314,0.713 -0.988,1.634 -1.328,2.11 -0.443,-0.08 -1.088,-0.142 -1.51,-0.142 -0.442,0 -0.492,0.258 -0.492,0.489 0,0.401 0.188,0.72 0.406,0.898 0.082,-0.205 0.247,-0.479 1.063,-0.479 0.016,0 0.044,0.002 0.082,0.005 -0.238,0.265 -0.985,0.869 -0.985,1.355 0,0.322 0.353,0.805 0.818,0.805 -0.027,-0.104 -0.024,-0.199 -0.024,-0.271 0,-0.394 0.349,-0.855 0.644,-1.177 -0.009,0.096 -0.004,0.086 -0.004,0.198 0,0.931 0.084,1.359 0.675,1.359 0.29,0 0.49,-0.159 0.559,-0.207 -0.384,-0.353 -0.404,-0.631 -0.404,-1.153 0.001,-0.136 0.002,-0.269 0.004,-0.452 0.001,-0.12 -0.001,-0.278 -0.02,-0.392 0.211,-0.029 0.297,-0.029 0.46,-0.029 0,0 0.839,-0.067 1.042,0.37 0.228,-0.209 0.559,-0.504 0.559,-0.829 0,-0.215 -0.102,-0.458 -0.535,-0.458 -0.164,0 -0.679,0.1 -1.11,0.1 0.116,-0.257 0.631,-1.011 1.078,-1.558 0.068,0.212 0.173,0.441 0.407,0.629 0.033,-0.352 0.239,-1.465 0.789,-2.116 0.064,0.44 0.15,0.891 0.15,1.842 0,2.314 -0.556,4.023 -1.737,4.349 0.154,0.267 0.479,0.508 0.816,0.508 0.432,0 0.667,-0.489 0.907,-0.95 0.125,0.34 0.47,1.174 0.816,1.174 0.346,0 0.692,-0.834 0.817,-1.174 0.239,0.461 0.475,0.95 0.907,0.95 0.337,0 0.662,-0.241 0.816,-0.508 -1.181,-0.326 -1.738,-2.035 -1.738,-4.349 0,-0.951 0.086,-1.402 0.15,-1.842 0.551,0.651 0.758,1.764 0.789,2.116 0.235,-0.188 0.341,-0.417 0.408,-0.629 0.446,0.547 0.962,1.301 1.078,1.558 -0.431,0 -0.947,-0.1 -1.11,-0.1 -0.432,0 -0.534,0.243 -0.534,0.458 0,0.325 0.331,0.62 0.559,0.829 0.201,-0.437 1.042,-0.37 1.042,-0.37 0.162,0 0.248,0 0.46,0.029 -0.02,0.114 -0.021,0.272 -0.02,0.392 0.002,0.183 0.002,0.316 0.003,0.452 0,0.522 -0.02,0.8 -0.404,1.153 0.069,0.048 0.269,0.207 0.559,0.207 0.591,0 0.676,-0.428 0.676,-1.359 0,-0.112 0.003,-0.102 -0.005,-0.198 0.295,0.322 0.644,0.783 0.644,1.177 0,0.072 0.004,0.167 -0.025,0.271 0.466,0 0.82,-0.483 0.82,-0.805 0,-0.486 -0.747,-1.09 -0.987,-1.355 0.039,-0.003 0.067,-0.005 0.082,-0.005 0.817,0 0.982,0.274 1.064,0.479 0.218,-0.178 0.406,-0.497 0.406,-0.898 0,-0.231 -0.05,-0.489 -0.492,-0.489 -0.422,0 -1.066,0.062 -1.51,0.142 -0.341,-0.476 -1.013,-1.397 -1.328,-2.11 0.127,0.022 0.308,0.037 0.587,0.037 0.14,0 0.29,-0.013 0.377,-0.051 -1.354,-1.172 -2.482,-2.69 -2.482,-4.409 0,-0.275 0.065,-0.551 0.158,-0.847 0.033,-0.007 0.069,-0.012 0.103,-0.018 l 3.418,5.47 c 1.023,1.618 1.826,1.59 3.035,1.59 -0.996,-0.763 -1.665,-1.75 -1.978,-2.25 l -3.208,-5.133 c 0.174,-0.055 0.345,-0.117 0.513,-0.181 l 2.837,4.543 c 1.024,1.618 1.826,1.59 3.036,1.59 -1.007,-0.774 -1.661,-1.743 -1.979,-2.25 L 39.538,30.53 c 0.156,-0.086 0.309,-0.177 0.457,-0.271 l 2.259,3.615 c 1.024,1.619 1.825,1.59 3.035,1.59 -1.007,-0.771 -1.66,-1.743 -1.979,-2.25 l -2.316,-3.708 c 0.136,-0.122 0.266,-0.25 0.387,-0.381 l 1.643,2.628 c 1.023,1.618 1.825,1.59 3.035,1.59 -1.006,-0.772 -1.662,-1.746 -1.98,-2.252 L 42.173,28.04 c 0.102,-0.19 0.189,-0.384 0.261,-0.583 z"
       id="path5" />
    <path
       d="M 56,42 H 52.5 V 22 H 56 Z"
       id="path7" />
    <path
       d="M 56,62 H 52.5 V 42 H 56 Z"
       fill="#ff0000"
       id="path9" />
    <path
       d="M 56,82 H 52.5 V 62 H 56 Z"
       fill="#ffcc00"
       id="path11" />
  </g>
</svg>
